<?xml version="1.0" encoding="utf-8"?>
<!-- Generator: Adobe Illustrator 24.0.3, SVG Export Plug-In . SVG Version: 6.00 Build 0)  -->
<!DOCTYPE svg PUBLIC "-//W3C//DTD SVG 1.1//EN" "http://www.w3.org/Graphics/SVG/1.1/DTD/svg11.dtd" [
	<!ENTITY ns_extend "http://ns.adobe.com/Extensibility/1.0/">
	<!ENTITY ns_ai "http://ns.adobe.com/AdobeIllustrator/10.0/">
	<!ENTITY ns_graphs "http://ns.adobe.com/Graphs/1.0/">
	<!ENTITY ns_vars "http://ns.adobe.com/Variables/1.0/">
	<!ENTITY ns_imrep "http://ns.adobe.com/ImageReplacement/1.0/">
	<!ENTITY ns_sfw "http://ns.adobe.com/SaveForWeb/1.0/">
	<!ENTITY ns_custom "http://ns.adobe.com/GenericCustomNamespace/1.0/">
	<!ENTITY ns_adobe_xpath "http://ns.adobe.com/XPath/1.0/">
]>
<svg version="1.1" id="Layer_1" xmlns:x="&ns_extend;" xmlns:i="&ns_ai;" xmlns:graph="&ns_graphs;"
	 xmlns="http://www.w3.org/2000/svg" xmlns:xlink="http://www.w3.org/1999/xlink" x="0px" y="0px" viewBox="0 0 135.8 135.8"
	 style="enable-background:new 0 0 135.8 135.8;" xml:space="preserve">
<style type="text/css">
	.st0{fill:#5471AF;}
	.st1{fill:url(#SVGID_1_);}
	.st2{fill:#68A0F2;}
	.st3{fill:#B3E7FC;}
	.st4{fill:#FFFFFF;}
</style>
<metadata>
	<sfw  xmlns="&ns_sfw;">
		<slices></slices>
		<sliceSourceBounds  bottomLeftOrigin="true" height="135.8" width="135.8" x="0" y="0"></sliceSourceBounds>
	</sfw>
</metadata>
<path class="st0" d="M135.8,67.9c0,34.6-27.1,64.5-61.6,67.6c-34.5,3.2-66.8-21.1-73.1-55.2c-6.3-34.1,15-68.5,48.4-77.8
	c33.4-9.4,69.6,8.8,81.9,41.3C134.3,51.4,135.8,59.6,135.8,67.9"/>
<radialGradient id="SVGID_1_" cx="67.8937" cy="70.13" r="63.1235" gradientTransform="matrix(1 0 0 -1 0 138.001)" gradientUnits="userSpaceOnUse">
	<stop  offset="0" style="stop-color:#D4E4F7"/>
	<stop  offset="1" style="stop-color:#7FB5F7"/>
</radialGradient>
<path class="st1" d="M131,67.9c0,34.4-28.7,63.1-63.1,63.1S4.8,102.3,4.8,67.9S33.5,4.7,67.9,4.7S131,33.5,131,67.9"/>
<path class="st2" d="M124.9,43.3c5.1,29.7-12.7,59.6-41.2,69.3c-30.3,10.3-64.4-4.9-77-34.3c6.1,35.5,42.6,58.8,77.4,49.4
	C120,118.1,139.7,77.6,124.9,43.3"/>
<path class="st3" d="M107.3,39.9C98.6,41.7,88.5,29.3,81,26.1C66.8,20.3,49.2,23,36.4,31c-13.6,8.5-23.2,24.7-24.7,40.7
	c0,0,0,0.1,0,0c1-9.7,0.3-18.8,4-28.1C21.8,28.1,35,16,50.9,11.1c16.4-5,34.4-1.8,48.6,7.8C103.9,21.9,120.7,37.1,107.3,39.9"/>
<path class="st4" d="M69.7,35.5v12.9c0,5.1-0.3,4.5,4.7,4.5c6.5,0,26.1-3.6,26.1,6.8c0,6.4,3.5,25.5-6.7,25.5
	c-2.9,0-24.2-0.7-24.2,0.6v14.9c0,4.6-4.7,8.9-8.9,4.8L41.7,86.4c-4-4-19.6-15-12.9-21.7c4.9-6.6,12.3-12.3,18.1-18.2c4-4,8-8,12-12
	C61.6,31.8,69.7,28.7,69.7,35.5"/>
<path class="st0" d="M60.2,31.9c-6,6.1-12.1,12.1-18.2,18.2c-4.2,4.2-17.7,13.6-15.8,20.8C27,73.8,30,76,32,78l12.2,12.1l11.4,11.4
	c2.1,2.1,4.7,5.6,7.9,6.2c7.3,1.2,7.1-5.9,7.1-10.8v-8.6c0-2.6,0.1-2.3,2.7-2.3c6.8,0,28.2,3.8,28.2-7.3c0-6.6,3.6-26.8-7.1-26.8
	c-4.1-0.6-8.7,0-12.8,0c-3.7,0-10.9,2-10.9-2.3V37.1C70.6,32,64.6,27.5,60.2,31.9 M94.3,84.2H68.9c0.3,0,2.2,30.2-7.4,20.6
	c-2-1.2-3.8-3.8-5.4-5.4L43.3,86.8c-3.5-3.5-20-15.4-14-21.5c4.6-6.7,12.4-12.4,18.1-18.2c3.4-3.4,14-18.4,20-14
	c4.4,3.2-2.3,20.7,2.9,20.7h15.5c3.6,0,10.2-1.2,12.7,2.2c2.5,3.3,1,10.7,1,14.5C99.6,74.9,101.2,84.2,94.3,84.2"/>
</svg>
